<svg width="49" height="49" viewBox="0 0 49 49" fill="none" xmlns="http://www.w3.org/2000/svg">
<g clip-path="url(#clip0_918_308)">
<rect x="0.25" y="0.242004" width="48" height="48" rx="24" fill="#2B4EC5"/>
<path d="M13.9694 30.242V19.442H21.3794V21.347H16.0094V23.402H18.5294C18.6294 23.402 18.7694 23.407 18.9494 23.417C19.1294 23.422 19.2894 23.432 19.4294 23.447C20.0494 23.512 20.5644 23.7045 20.9744 24.0245C21.3894 24.3395 21.6994 24.742 21.9044 25.232C22.1144 25.717 22.2194 26.247 22.2194 26.822C22.2194 27.397 22.1169 27.9295 21.9119 28.4195C21.7069 28.9045 21.3969 29.307 20.9819 29.627C20.5719 29.942 20.0544 30.132 19.4294 30.197C19.2894 30.212 19.1294 30.2245 18.9494 30.2345C18.7744 30.2395 18.6344 30.242 18.5294 30.242H13.9694ZM16.0094 28.337H18.4394C18.5444 28.337 18.6594 28.332 18.7844 28.322C18.9094 28.312 19.0244 28.297 19.1294 28.277C19.5444 28.187 19.8194 27.9945 19.9544 27.6995C20.0944 27.4045 20.1644 27.112 20.1644 26.822C20.1644 26.527 20.0944 26.2345 19.9544 25.9445C19.8194 25.6495 19.5444 25.457 19.1294 25.367C19.0244 25.342 18.9094 25.327 18.7844 25.322C18.6594 25.312 18.5444 25.307 18.4394 25.307H16.0094V28.337ZM23.7253 30.242V19.442H25.5553L29.1253 26.612L32.6953 19.442H34.5253V30.242H32.6203V23.792L29.4853 30.242H28.7653L25.6303 23.792V30.242H23.7253Z" fill="white"/>
</g>
<defs>
<clipPath id="clip0_918_308">
<rect x="0.25" y="0.242004" width="48" height="48" rx="24" fill="white"/>
</clipPath>
</defs>
</svg>
