<svg width="25" height="25" viewBox="0 0 25 25" fill="none" xmlns="http://www.w3.org/2000/svg">
<path fill-rule="evenodd" clip-rule="evenodd" d="M3.25 5.15723C3.25 4.3288 3.92157 3.65723 4.75 3.65723H19.75C20.5784 3.65723 21.25 4.3288 21.25 5.15723V20.1572C21.25 20.9857 20.5784 21.6572 19.75 21.6572H4.75C3.92157 21.6572 3.25 20.9857 3.25 20.1572V5.15723ZM19.75 5.15723H4.75V20.1572H19.75V5.15723Z" fill="#999999"/>
<path fill-rule="evenodd" clip-rule="evenodd" d="M16.75 2.15723C17.1642 2.15723 17.5 2.49301 17.5 2.90723V5.90723C17.5 6.32144 17.1642 6.65723 16.75 6.65723C16.3358 6.65723 16 6.32144 16 5.90723V2.90723C16 2.49301 16.3358 2.15723 16.75 2.15723Z" fill="#999999"/>
<path fill-rule="evenodd" clip-rule="evenodd" d="M7.75 2.15723C8.16421 2.15723 8.5 2.49301 8.5 2.90723V5.90723C8.5 6.32144 8.16421 6.65723 7.75 6.65723C7.33579 6.65723 7 6.32144 7 5.90723V2.90723C7 2.49301 7.33579 2.15723 7.75 2.15723Z" fill="#999999"/>
<path fill-rule="evenodd" clip-rule="evenodd" d="M3.25 8.90723C3.25 8.49301 3.58579 8.15723 4 8.15723H20.5C20.9142 8.15723 21.25 8.49301 21.25 8.90723C21.25 9.32144 20.9142 9.65723 20.5 9.65723H4C3.58579 9.65723 3.25 9.32144 3.25 8.90723Z" fill="#999999"/>
</svg>
