<svg width="25" height="25" viewBox="0 0 25 25" fill="none" xmlns="http://www.w3.org/2000/svg">
<path fill-rule="evenodd" clip-rule="evenodd" d="M1.75 21.6572C1.75 21.243 2.08579 20.9072 2.5 20.9072H22C22.4142 20.9072 22.75 21.243 22.75 21.6572C22.75 22.0714 22.4142 22.4072 22 22.4072H2.5C2.08579 22.4072 1.75 22.0714 1.75 21.6572Z" fill="#999999"/>
<path fill-rule="evenodd" clip-rule="evenodd" d="M5.18934 3.34657C5.47064 3.06526 5.85217 2.90723 6.25 2.90723H18.25C18.6478 2.90723 19.0294 3.06526 19.3107 3.34657C19.592 3.62787 19.75 4.0094 19.75 4.40723V21.6572C19.75 22.0714 19.4142 22.4072 19 22.4072C18.5858 22.4072 18.25 22.0714 18.25 21.6572V4.40723L6.25 4.40723L6.25 21.6572C6.25 22.0714 5.91421 22.4072 5.5 22.4072C5.08579 22.4072 4.75 22.0714 4.75 21.6572V4.40723C4.75 4.0094 4.90804 3.62787 5.18934 3.34657Z" fill="#999999"/>
<path d="M14.875 13.7822C15.4963 13.7822 16 13.2785 16 12.6572C16 12.0359 15.4963 11.5322 14.875 11.5322C14.2537 11.5322 13.75 12.0359 13.75 12.6572C13.75 13.2785 14.2537 13.7822 14.875 13.7822Z" fill="#999999"/>
</svg>
