<svg width="25" height="25" viewBox="0 0 25 25" fill="none" xmlns="http://www.w3.org/2000/svg">
<g clip-path="url(#clip0_918_321)">
<rect x="0.668884" y="0.242004" width="24" height="24" rx="4" transform="rotate(1 0.668884 0.242004)" fill="white"/>
<g clip-path="url(#clip1_918_321)">
<path d="M34.2499 1.41486L0.249939 1.41486L0.249939 8.74819L34.2499 8.74819L34.2499 1.41486Z" fill="white"/>
<path d="M34.2499 8.7482L0.249939 8.7482L0.249939 16.0815L34.2499 16.0815L34.2499 8.7482Z" fill="#061B79"/>
<path d="M34.2499 16.0815L0.249939 16.0815L0.249939 23.4148L34.2499 23.4148L34.2499 16.0815Z" fill="#C23729"/>
</g>
</g>
<rect x="1.16008" y="0.750654" width="23" height="23" rx="3.5" transform="rotate(1 1.16008 0.750654)" stroke="#DBE1E8"/>
<defs>
<clipPath id="clip0_918_321">
<rect x="0.668884" y="0.242004" width="24" height="24" rx="4" transform="rotate(1 0.668884 0.242004)" fill="white"/>
</clipPath>
<clipPath id="clip1_918_321">
<rect width="34" height="22" fill="white" transform="translate(0.249939 1.41486)"/>
</clipPath>
</defs>
</svg>
