<svg width="25" height="25" viewBox="0 0 25 25" fill="none" xmlns="http://www.w3.org/2000/svg">
<path fill-rule="evenodd" clip-rule="evenodd" d="M11.8971 2.99546C12.1176 2.87781 12.3824 2.87781 12.6029 2.99546L23.8529 8.99546C24.0973 9.12581 24.25 9.38024 24.25 9.65723C24.25 9.93421 24.0973 10.1886 23.8529 10.319L12.6029 16.319C12.3824 16.4366 12.1176 16.4366 11.8971 16.319L0.647059 10.319C0.402661 10.1886 0.25 9.93421 0.25 9.65723C0.25 9.38024 0.402661 9.12581 0.647059 8.99546L11.8971 2.99546ZM2.59375 9.65723L12.25 14.8072L21.9062 9.65723L12.25 4.50723L2.59375 9.65723Z" fill="white"/>
<path fill-rule="evenodd" clip-rule="evenodd" d="M11.5883 9.30428C11.7832 8.9388 12.2375 8.80053 12.603 8.99546L18.228 11.9955C18.4724 12.1258 18.625 12.3802 18.625 12.6572V23.1572C18.625 23.5714 18.2892 23.9072 17.875 23.9072C17.4608 23.9072 17.125 23.5714 17.125 23.1572V13.1072L11.8971 10.319C11.5316 10.1241 11.3933 9.66976 11.5883 9.30428Z" fill="white"/>
<path fill-rule="evenodd" clip-rule="evenodd" d="M3.62501 10.3041C4.03922 10.3041 4.37501 10.6399 4.37501 11.0541V16.1634L4.37665 16.1656L4.37661 16.1656C4.93281 16.9128 7.399 19.7822 12.25 19.7822C17.101 19.7822 19.5672 16.9128 20.1234 16.1656L20.125 16.1635V11.0541C20.125 10.6399 20.4608 10.3041 20.875 10.3041C21.2892 10.3041 21.625 10.6399 21.625 11.0541V16.1729L21.625 16.176C21.6236 16.497 21.5181 16.8088 21.3243 17.0645C20.6202 18.009 17.7616 21.2822 12.25 21.2822C6.73838 21.2822 3.87978 18.009 3.17574 17.0645C2.98193 16.8088 2.87637 16.497 2.87501 16.176L2.875 16.1729H2.87501V11.0541C2.87501 10.6399 3.21079 10.3041 3.62501 10.3041Z" fill="white"/>
</svg>
