<svg width="25" height="25" viewBox="0 0 25 25" fill="none" xmlns="http://www.w3.org/2000/svg">
<path fill-rule="evenodd" clip-rule="evenodd" d="M5.21346 3.57182C5.3405 3.31773 5.6002 3.15723 5.88428 3.15723H19.3843C19.6684 3.15723 19.9281 3.31773 20.0551 3.57182L21.5551 6.57182C21.6072 6.67596 21.6343 6.79079 21.6343 6.90723V19.6572C21.6343 20.055 21.4762 20.4366 21.1949 20.7179C20.9136 20.9992 20.5321 21.1572 20.1343 21.1572H5.13428C4.73645 21.1572 4.35492 20.9992 4.07362 20.7179C3.79231 20.4366 3.63428 20.055 3.63428 19.6572V6.90723C3.63428 6.79079 3.66139 6.67596 3.71346 6.57182L5.21346 3.57182ZM6.3478 4.65723L5.13428 7.08428V19.6572H20.1343V7.08428L18.9208 4.65723H6.3478Z" fill="#999999"/>
<path fill-rule="evenodd" clip-rule="evenodd" d="M8.92585 13.6988C9.21874 13.4059 9.69361 13.4059 9.98651 13.6988L12.6343 16.3466L15.2821 13.6988C15.575 13.4059 16.0499 13.4059 16.3428 13.6988C16.6356 13.9917 16.6356 14.4665 16.3428 14.7594L13.1646 17.9376C12.8717 18.2305 12.3969 18.2305 12.104 17.9376L8.92585 14.7594C8.63295 14.4665 8.63295 13.9917 8.92585 13.6988Z" fill="#999999"/>
<path fill-rule="evenodd" clip-rule="evenodd" d="M12.6343 9.15723C13.0485 9.15723 13.3843 9.49301 13.3843 9.90723V17.4072C13.3843 17.8214 13.0485 18.1572 12.6343 18.1572C12.2201 18.1572 11.8843 17.8214 11.8843 17.4072V9.90723C11.8843 9.49301 12.2201 9.15723 12.6343 9.15723Z" fill="#999999"/>
<path fill-rule="evenodd" clip-rule="evenodd" d="M3.63428 6.90723C3.63428 6.49301 3.97006 6.15723 4.38428 6.15723H20.8843C21.2985 6.15723 21.6343 6.49301 21.6343 6.90723C21.6343 7.32144 21.2985 7.65723 20.8843 7.65723H4.38428C3.97006 7.65723 3.63428 7.32144 3.63428 6.90723Z" fill="#999999"/>
</svg>
