<svg width="25" height="25" viewBox="0 0 25 25" fill="none" xmlns="http://www.w3.org/2000/svg">
<path fill-rule="evenodd" clip-rule="evenodd" d="M12.3811 8.90723C10.31 8.90723 8.6311 10.5862 8.6311 12.6572C8.6311 14.7283 10.31 16.4072 12.3811 16.4072C14.4522 16.4072 16.1311 14.7283 16.1311 12.6572C16.1311 10.5862 14.4522 8.90723 12.3811 8.90723ZM7.1311 12.6572C7.1311 9.75773 9.48161 7.40723 12.3811 7.40723C15.2806 7.40723 17.6311 9.75773 17.6311 12.6572C17.6311 15.5567 15.2806 17.9072 12.3811 17.9072C9.48161 17.9072 7.1311 15.5567 7.1311 12.6572Z" fill="#999999"/>
<path fill-rule="evenodd" clip-rule="evenodd" d="M9.16948 2.65287C9.37547 2.58637 9.60014 2.61212 9.78575 2.72348L11.9781 4.03888C12.2468 4.02687 12.5159 4.02688 12.7847 4.0389L14.9679 2.73241C15.152 2.62225 15.3744 2.59619 15.5789 2.66082C17.0117 3.11346 18.3289 3.87208 19.4394 4.88414C19.5986 5.02922 19.6878 5.23574 19.6841 5.4511L19.6412 7.99945C19.7893 8.22679 19.9251 8.46185 20.0482 8.70363L22.2706 9.93923C22.4577 10.0433 22.5915 10.2223 22.6381 10.4313C22.9651 11.8957 22.9685 13.4139 22.6482 14.8798C22.6022 15.0906 22.4676 15.2713 22.2789 15.3758L20.0479 16.6114C19.9249 16.853 19.7892 17.0879 19.6412 17.315L19.6841 19.8634C19.6878 20.0787 19.5986 20.2853 19.4394 20.4303C18.3312 21.4402 17.0196 22.201 15.5928 22.6616C15.3868 22.7281 15.1621 22.7023 14.9765 22.591L12.7842 21.2756C12.5155 21.2876 12.2463 21.2876 11.9776 21.2756L9.79438 22.582C9.6103 22.6922 9.38787 22.7183 9.18331 22.6536C7.75059 22.201 6.43336 21.4424 5.32282 20.4303C5.16361 20.2852 5.07447 20.0787 5.07811 19.8633L5.12106 17.3207C4.97389 17.091 4.83819 16.8542 4.71446 16.6111L2.49168 15.3752C2.30455 15.2712 2.17081 15.0921 2.12415 14.8832C1.79718 13.4187 1.79373 11.9005 2.11404 10.4346C2.16009 10.2239 2.29467 10.0432 2.48338 9.93863L4.71436 8.70301C4.83735 8.46145 4.97309 8.2266 5.12101 7.99944L5.07811 5.4511C5.07449 5.23573 5.16363 5.0292 5.32285 4.88412C6.43105 3.87427 7.74267 3.11346 9.16948 2.65287ZM6.58374 5.77285L6.62477 8.21023C6.62743 8.36813 6.58018 8.52285 6.48974 8.65232C6.28858 8.94033 6.11246 9.24504 5.96332 9.56312C5.89627 9.70612 5.78579 9.8243 5.64763 9.90082L3.51439 11.0823C3.32779 12.1241 3.33038 13.191 3.52204 14.2318L5.6487 15.4142C5.78582 15.4905 5.89558 15.6078 5.96253 15.7497C6.11494 16.0726 6.29271 16.383 6.49416 16.6779C6.58176 16.8061 6.6274 16.9584 6.62477 17.1136L6.58376 19.5415C7.39442 20.2263 8.32145 20.7601 9.32068 21.1174L11.4054 19.8699C11.5374 19.7909 11.6905 19.7544 11.844 19.7654C12.2016 19.791 12.5606 19.791 12.9182 19.7654C13.072 19.7544 13.2254 19.791 13.3576 19.8704L15.449 21.1252C16.445 20.7622 17.3691 20.2261 18.1785 19.5416L18.1375 17.1042C18.1348 16.9463 18.1821 16.7916 18.2725 16.6621C18.4737 16.3741 18.6498 16.0694 18.7989 15.7513C18.866 15.6083 18.9765 15.4902 19.1146 15.4136L21.2479 14.2321C21.4345 13.1904 21.4319 12.1235 21.2402 11.0826L19.1136 9.90023C18.9759 9.82368 18.8658 9.70574 18.7989 9.56312C18.6498 9.24504 18.4737 8.94033 18.2725 8.65232C18.1821 8.52285 18.1348 8.36813 18.1375 8.21023L18.1785 5.77295C17.3679 5.08813 16.4408 4.55434 15.4416 4.19701L13.3569 5.44454C13.2249 5.52355 13.0717 5.56004 12.9182 5.54907C12.5606 5.52349 12.2016 5.52349 11.844 5.54907C11.6902 5.56007 11.5368 5.52341 11.4046 5.4441L9.31322 4.18925C8.31725 4.55224 7.39319 5.08836 6.58374 5.77285Z" fill="#999999"/>
</svg>
