<svg width="25" height="25" viewBox="0 0 25 25" fill="none" xmlns="http://www.w3.org/2000/svg">
<path fill-rule="evenodd" clip-rule="evenodd" d="M5.25 4.242C4.98478 4.242 4.73043 4.34736 4.54289 4.5349C4.35536 4.72243 4.25 4.97679 4.25 5.242V19.242C4.25 19.5072 4.35536 19.7616 4.54289 19.9491C4.73043 20.1366 4.98478 20.242 5.25 20.242H9.25C9.80228 20.242 10.25 20.6897 10.25 21.242C10.25 21.7943 9.80228 22.242 9.25 22.242H5.25C4.45435 22.242 3.69129 21.9259 3.12868 21.3633C2.56607 20.8007 2.25 20.0377 2.25 19.242V5.242C2.25 4.44636 2.56607 3.68329 3.12868 3.12068C3.69129 2.55807 4.45435 2.242 5.25 2.242H9.25C9.80228 2.242 10.25 2.68972 10.25 3.242C10.25 3.79429 9.80228 4.242 9.25 4.242H5.25Z" fill="#999999"/>
<path fill-rule="evenodd" clip-rule="evenodd" d="M15.5429 6.5349C15.9334 6.14437 16.5666 6.14437 16.9571 6.5349L21.9571 11.5349C22.3476 11.9254 22.3476 12.5586 21.9571 12.9491L16.9571 17.9491C16.5666 18.3396 15.9334 18.3396 15.5429 17.9491C15.1524 17.5586 15.1524 16.9254 15.5429 16.5349L19.8358 12.242L15.5429 7.94911C15.1524 7.55859 15.1524 6.92542 15.5429 6.5349Z" fill="#999999"/>
<path fill-rule="evenodd" clip-rule="evenodd" d="M8.25 12.242C8.25 11.6897 8.69772 11.242 9.25 11.242H21.25C21.8023 11.242 22.25 11.6897 22.25 12.242C22.25 12.7943 21.8023 13.242 21.25 13.242H9.25C8.69772 13.242 8.25 12.7943 8.25 12.242Z" fill="#999999"/>
</svg>
