<svg width="25" height="25" viewBox="0 0 25 25" fill="none" xmlns="http://www.w3.org/2000/svg">
<path fill-rule="evenodd" clip-rule="evenodd" d="M3.25 5.90723C3.66421 5.90723 4 6.24301 4 6.65723V14.1572C4 14.5714 3.66421 14.9072 3.25 14.9072C2.83579 14.9072 2.5 14.5714 2.5 14.1572V6.65723C2.5 6.24301 2.83579 5.90723 3.25 5.90723Z" fill="#999999"/>
<path fill-rule="evenodd" clip-rule="evenodd" d="M12.25 17.9088C11.0008 17.9088 9.77123 18.2204 8.67282 18.8155C7.57441 19.4106 6.64182 20.2704 5.95953 21.3168C5.7333 21.6638 5.26863 21.7617 4.92165 21.5355C4.57467 21.3093 4.47678 20.8446 4.703 20.4976C5.52158 19.2421 6.64045 18.2106 7.95827 17.4967C9.27609 16.7827 10.7512 16.4088 12.25 16.4088C13.7488 16.4088 15.2239 16.7827 16.5418 17.4967C17.8596 18.2106 18.9785 19.2421 19.797 20.4976C20.0233 20.8446 19.9254 21.3093 19.5784 21.5355C19.2314 21.7617 18.7667 21.6638 18.5405 21.3168C17.8582 20.2704 16.9256 19.4106 15.8272 18.8155C14.7288 18.2204 13.4993 17.9088 12.25 17.9088Z" fill="#999999"/>
<path fill-rule="evenodd" clip-rule="evenodd" d="M12.0128 2.94571C12.1668 2.8944 12.3332 2.8944 12.4872 2.94571L21.4872 5.94571C21.7934 6.0478 22 6.3344 22 6.65723C22 6.98005 21.7934 7.26665 21.4872 7.36874L12.4872 10.3687C12.3332 10.4201 12.1668 10.4201 12.0128 10.3687L3.01283 7.36874C2.70657 7.26665 2.5 6.98005 2.5 6.65723C2.5 6.3344 2.70657 6.0478 3.01283 5.94571L12.0128 2.94571ZM5.62171 6.65723L12.25 8.86666L18.8783 6.65723L12.25 4.4478L5.62171 6.65723Z" fill="#999999"/>
<path fill-rule="evenodd" clip-rule="evenodd" d="M8.88464 7.81034C9.19012 8.09008 9.21099 8.5645 8.93125 8.86998C8.34156 9.51394 7.95195 10.3156 7.80993 11.1771C7.6679 12.0387 7.7796 12.9229 8.1314 13.7221C8.4832 14.5212 9.05991 15.2008 9.79121 15.6779C10.5225 16.155 11.3768 16.409 12.25 16.409C13.1232 16.409 13.9775 16.155 14.7088 15.6779C15.4401 15.2008 16.0168 14.5212 16.3686 13.7221C16.7204 12.9229 16.8321 12.0387 16.6901 11.1771C16.5481 10.3156 16.1584 9.51395 15.5688 8.86998C15.289 8.5645 15.3099 8.09008 15.6154 7.81034C15.9209 7.53061 16.3953 7.55148 16.675 7.85696C17.4613 8.71558 17.9807 9.7844 18.1701 10.9331C18.3595 12.0819 18.2105 13.2609 17.7415 14.3264C17.2724 15.392 16.5035 16.2981 15.5284 16.9342C14.5533 17.5703 13.4142 17.909 12.25 17.909C11.0858 17.909 9.94669 17.5703 8.97161 16.9342C7.99654 16.2981 7.2276 15.392 6.75853 14.3264C6.28947 13.2609 6.14054 12.0819 6.3299 10.9331C6.51927 9.7844 7.03874 8.71558 7.825 7.85696C8.10474 7.55148 8.57916 7.53061 8.88464 7.81034Z" fill="#999999"/>
</svg>
