<svg width="25" height="25" viewBox="0 0 25 25" fill="none" xmlns="http://www.w3.org/2000/svg">
<path fill-rule="evenodd" clip-rule="evenodd" d="M7.75 7.40723C6.09315 7.40723 4.75 8.75037 4.75 10.4072C4.75 12.0641 6.09315 13.4072 7.75 13.4072C9.40685 13.4072 10.75 12.0641 10.75 10.4072C10.75 8.75037 9.40685 7.40723 7.75 7.40723ZM3.25 10.4072C3.25 7.92195 5.26472 5.90723 7.75 5.90723C10.2353 5.90723 12.25 7.92195 12.25 10.4072C12.25 12.8925 10.2353 14.9072 7.75 14.9072C5.26472 14.9072 3.25 12.8925 3.25 10.4072Z" fill="#999999"/>
<path fill-rule="evenodd" clip-rule="evenodd" d="M13.75 8.15723C13.75 7.74301 14.0858 7.40723 14.5 7.40723H23.5C23.9142 7.40723 24.25 7.74301 24.25 8.15723C24.25 8.57144 23.9142 8.90723 23.5 8.90723H14.5C14.0858 8.90723 13.75 8.57144 13.75 8.15723Z" fill="#999999"/>
<path fill-rule="evenodd" clip-rule="evenodd" d="M13.75 12.6572C13.75 12.243 14.0858 11.9072 14.5 11.9072H23.5C23.9142 11.9072 24.25 12.243 24.25 12.6572C24.25 13.0714 23.9142 13.4072 23.5 13.4072H14.5C14.0858 13.4072 13.75 13.0714 13.75 12.6572Z" fill="#999999"/>
<path fill-rule="evenodd" clip-rule="evenodd" d="M16 17.1572C16 16.743 16.3358 16.4072 16.75 16.4072H23.5C23.9142 16.4072 24.25 16.743 24.25 17.1572C24.25 17.5714 23.9142 17.9072 23.5 17.9072H16.75C16.3358 17.9072 16 17.5714 16 17.1572Z" fill="#999999"/>
<path fill-rule="evenodd" clip-rule="evenodd" d="M7.75 14.8955C6.58427 14.8955 5.4517 15.2834 4.53084 15.9982C3.60998 16.713 2.95321 17.714 2.66406 18.8433C2.56132 19.2445 2.15274 19.4865 1.75147 19.3838C1.3502 19.281 1.10819 18.8725 1.21093 18.4712C1.58269 17.0192 2.42712 15.7323 3.61108 14.8133C4.79505 13.8943 6.25121 13.3955 7.75 13.3955C9.24878 13.3955 10.7049 13.8943 11.8889 14.8133C13.0729 15.7323 13.9173 17.0192 14.2891 18.4712C14.3918 18.8725 14.1498 19.281 13.7485 19.3838C13.3473 19.4865 12.9387 19.2445 12.8359 18.8433C12.5468 17.714 11.89 16.713 10.9692 15.9982C10.0483 15.2834 8.91572 14.8955 7.75 14.8955Z" fill="#999999"/>
</svg>
