<svg width="25" height="25" viewBox="0 0 25 25" fill="none" xmlns="http://www.w3.org/2000/svg">
<path fill-rule="evenodd" clip-rule="evenodd" d="M1.43934 5.97157C1.72064 5.69026 2.10217 5.53223 2.5 5.53223H14.5C15.4946 5.53223 16.4484 5.92731 17.1516 6.63058C17.8549 7.33384 18.25 8.28766 18.25 9.28223V18.2822C18.25 18.68 18.092 19.0616 17.8107 19.3429C17.5294 19.6242 17.1478 19.7822 16.75 19.7822H4.75C3.75544 19.7822 2.80161 19.3871 2.09835 18.6839C1.39509 17.9806 1 17.0268 1 16.0322V7.03223C1 6.6344 1.15804 6.25287 1.43934 5.97157ZM2.5 7.03223V16.0322C2.5 16.629 2.73705 17.2013 3.15901 17.6232C3.58097 18.0452 4.15326 18.2822 4.75 18.2822H16.75V9.28223C16.75 8.68549 16.5129 8.11319 16.091 7.69124C15.669 7.26928 15.0967 7.03223 14.5 7.03223L2.5 7.03223Z" fill="#999999"/>
<path fill-rule="evenodd" clip-rule="evenodd" d="M23.1265 7.50854C23.3577 7.64274 23.5 7.88987 23.5 8.15723V17.1572C23.5 17.4246 23.3577 17.6717 23.1265 17.8059C22.8952 17.9401 22.61 17.9411 22.3779 17.8084L17.1279 14.8084C16.7683 14.6029 16.6433 14.1448 16.8488 13.7851C17.0543 13.4255 17.5125 13.3005 17.8721 13.506L22 15.8648V9.44961L17.8721 11.8084C17.5125 12.0139 17.0543 11.889 16.8488 11.5293C16.6433 11.1697 16.7683 10.7116 17.1279 10.506L22.3779 7.50604C22.61 7.3734 22.8952 7.37435 23.1265 7.50854Z" fill="#999999"/>
</svg>
