<svg width="45" height="44" viewBox="0 0 45 44" fill="none" xmlns="http://www.w3.org/2000/svg">
<rect x="0.25" width="44" height="44" rx="12" fill="#F4F4F4"/>
<path fill-rule="evenodd" clip-rule="evenodd" d="M15.0527 22C15.0527 21.5858 15.3885 21.25 15.8027 21.25H27.8027C28.2169 21.25 28.5527 21.5858 28.5527 22C28.5527 22.4142 28.2169 22.75 27.8027 22.75H15.8027C15.3885 22.75 15.0527 22.4142 15.0527 22Z" fill="#2F3144" fill-opacity="0.65"/>
<path fill-rule="evenodd" clip-rule="evenodd" d="M11.3027 17.5C11.3027 17.0858 11.6385 16.75 12.0527 16.75H31.5527C31.9669 16.75 32.3027 17.0858 32.3027 17.5C32.3027 17.9142 31.9669 18.25 31.5527 18.25H12.0527C11.6385 18.25 11.3027 17.9142 11.3027 17.5Z" fill="#2F3144" fill-opacity="0.65"/>
<path fill-rule="evenodd" clip-rule="evenodd" d="M18.8027 26.5C18.8027 26.0858 19.1385 25.75 19.5527 25.75H24.0527C24.4669 25.75 24.8027 26.0858 24.8027 26.5C24.8027 26.9142 24.4669 27.25 24.0527 27.25H19.5527C19.1385 27.25 18.8027 26.9142 18.8027 26.5Z" fill="#2F3144" fill-opacity="0.65"/>
</svg>
