<svg width="45" height="44" viewBox="0 0 45 44" fill="none" xmlns="http://www.w3.org/2000/svg">
<rect x="0.25" width="44" height="44" rx="12" fill="#F4F4F4"/>
<path fill-rule="evenodd" clip-rule="evenodd" d="M14.1968 12.9522C14.1968 12.9522 14.1969 12.9522 14.1968 12.9522H30.3031C30.594 12.9523 30.8789 13.037 31.1226 13.1961C31.3663 13.3551 31.5584 13.5815 31.6757 13.8478C31.7929 14.1141 31.8302 14.4087 31.7829 14.6958C31.7358 14.9824 31.6065 15.249 31.4107 15.4635C31.4103 15.4639 31.41 15.4643 31.4096 15.4647L25.25 22.2431V27.5462C25.2516 27.7957 25.1906 28.0416 25.0725 28.2615C24.9545 28.4809 24.7835 28.6673 24.5751 28.8035L21.578 30.7985L21.575 30.8005C21.3499 30.9487 21.0891 31.0336 20.8199 31.0461C20.5507 31.0587 20.2831 30.9985 20.0452 30.8719C19.8073 30.7453 19.6079 30.5569 19.4679 30.3266C19.328 30.0962 19.2527 29.8325 19.25 29.563L19.2499 29.5554L19.25 22.2432L19.248 22.2411L13.0904 15.4647C13.09 15.4644 13.0897 15.464 13.0894 15.4636C12.8935 15.2492 12.7642 14.9824 12.717 14.6958C12.6697 14.4087 12.707 14.1141 12.8243 13.8478C12.9415 13.5815 13.1337 13.3551 13.3773 13.1961C13.6208 13.0371 13.9053 12.9524 14.196 12.9522M30.3029 14.4522H14.1971L14.1988 14.4541L20.3553 21.2291C20.6114 21.5054 20.7525 21.869 20.75 22.2458V29.5477L23.75 27.5509L23.7499 27.5491L23.75 22.2458C23.7474 21.869 23.8886 21.5054 24.1447 21.2291L30.3012 14.4541L30.3029 14.4522Z" fill="#2F3144" fill-opacity="0.65"/>
</svg>
