<svg width="25" height="44" viewBox="0 0 25 44" fill="none" xmlns="http://www.w3.org/2000/svg">
<path fill-rule="evenodd" clip-rule="evenodd" d="M11.25 14C7.38401 14 4.25 17.134 4.25 21C4.25 24.866 7.38401 28 11.25 28C15.116 28 18.25 24.866 18.25 21C18.25 17.134 15.116 14 11.25 14ZM2.25 21C2.25 16.0294 6.27944 12 11.25 12C16.2206 12 20.25 16.0294 20.25 21C20.25 25.9706 16.2206 30 11.25 30C6.27944 30 2.25 25.9706 2.25 21Z" fill="#999999"/>
<path fill-rule="evenodd" clip-rule="evenodd" d="M16.1929 25.9429C16.5834 25.5524 17.2166 25.5524 17.6071 25.9429L21.9571 30.2929C22.3476 30.6834 22.3476 31.3166 21.9571 31.7071C21.5666 32.0976 20.9334 32.0976 20.5429 31.7071L16.1929 27.3571C15.8024 26.9666 15.8024 26.3334 16.1929 25.9429Z" fill="#999999"/>
</svg>
