<svg width="25" height="24" viewBox="0 0 25 24" fill="none" xmlns="http://www.w3.org/2000/svg">
<path fill-rule="evenodd" clip-rule="evenodd" d="M11.25 4C7.38401 4 4.25 7.13401 4.25 11C4.25 14.866 7.38401 18 11.25 18C15.116 18 18.25 14.866 18.25 11C18.25 7.13401 15.116 4 11.25 4ZM2.25 11C2.25 6.02944 6.27944 2 11.25 2C16.2206 2 20.25 6.02944 20.25 11C20.25 15.9706 16.2206 20 11.25 20C6.27944 20 2.25 15.9706 2.25 11Z" fill="#999999"/>
<path fill-rule="evenodd" clip-rule="evenodd" d="M16.1929 15.9429C16.5834 15.5524 17.2166 15.5524 17.6071 15.9429L21.9571 20.2929C22.3476 20.6834 22.3476 21.3166 21.9571 21.7071C21.5666 22.0976 20.9334 22.0976 20.5429 21.7071L16.1929 17.3571C15.8024 16.9666 15.8024 16.3334 16.1929 15.9429Z" fill="#999999"/>
</svg>
